# xmcd
#
# Track frame offsets: 
#        187
#        13074
#        31277
#        54919
#        67314
#        80972
#        99877
#        114874
#        144944
#        158907
#        169839
#        199972
#        213129
#        231289
#        262467
#
# Disc length: 3698 seconds
#
# Revision: 5
# Processed by: cddbd v1.5.2PL0 Copyright (c) Steve Scherf et al.
# Submitted via: ExactAudioCopy v1.3
#
DISCID=d40e700f
DTITLE=Various Artist - The Best Of Bossa Nova 1988
DYEAR=1988
DGENRE=Bossa Nova
TTITLE0=Antonio Carlos Jobim - Agua De Beber
TTITLE1=Stan Getz and Joao Gilberto - Desafinado
TTITLE2=Stan Getz and Astrud Gilberto - The Girl From Ipanema
TTITLE3=Stan Getz and Astrud Gilberto - Corcovado (Live)
TTITLE4=Luiz Henrique - Mas Que Nada
TTITLE5=Stan Getz and Gary McFarland - Chega De Saudade
TTITLE6=Baden Powell - Tristeza
TTITLE7=Stan Getz and Charlie Byrd - Baia
TTITLE8=Walter Wanderley - Summer Samba
TTITLE9=Astrud Gilberto - Gentle Rain
TTITLE10=Stan Getz and Laurindo Almeida - Outra Vez
TTITLE11=Antonio Carlos Jobim - Insensatez (How Insensitive)
TTITLE12=Joao Gilberto - Meditation (Live)
TTITLE13=Stan Getz and Luiz Bonfa - O Morro Nao Tem Vez
TTITLE14=Luiz Bonfa - Manha De Carnaval
EXTD=
EXTT0=
EXTT1=
EXTT2=
EXTT3=
EXTT4=
EXTT5=
EXTT6=
EXTT7=
EXTT8=
EXTT9=
EXTT10=
EXTT11=
EXTT12=
EXTT13=
EXTT14=
PLAYORDER=
